<svg width="157" height="51" viewBox="0 0 157 51" fill="none" xmlns="http://www.w3.org/2000/svg">
<path d="M8.71749 14.0566C8.6296 13.7168 8.76143 13.5635 9.20575 13.6008C12.9068 13.7914 17.8089 12.6934 20.3088 12.6561C22.1788 12.6188 23.1602 13.261 23.6973 14.5082C23.8291 14.8107 23.7413 15.0759 23.2091 15.0013C20.0012 14.964 16.8763 15.6435 14.1567 16.0247C12.3746 18.2954 10.1872 21.5853 8.00463 24.9539C9.21063 24.7633 10.3678 24.6887 11.1686 24.6514C13.3999 24.5769 14.3764 25.1818 14.8256 26.3544C14.9575 26.6942 14.9575 26.9221 14.3813 26.9221C11.9742 26.9221 8.6296 27.4524 6.13459 27.9828C4.8407 30.1001 3.63958 32.1801 2.70212 33.9618C4.8407 33.3942 7.78491 32.8638 9.611 32.7892C11.7935 32.7147 12.9116 33.3196 13.3999 34.4549C13.5317 34.7947 13.4878 35.0226 12.9556 35.0226C10.4606 34.9853 5.59751 35.9673 3.1025 36.5349C2.25292 36.7255 1.76466 36.7255 1.23246 36.1579C0.876031 35.8181 0.607488 35.2505 0.295001 34.7574C-0.105372 34.1152 -0.105372 33.6221 0.338945 32.6028C2.38964 27.9497 6.84745 20.914 10.5924 15.9957C9.47917 15.6104 8.98603 14.8521 8.71749 14.0566Z" fill="white"/>
<path d="M19.8646 29.4952C21.1145 25.2192 26.1485 18.109 30.2059 12.8882C30.5624 12.4324 30.9627 12.5111 31.2752 12.9255C31.9881 13.8702 32.1687 15.3453 30.4305 18.1836C28.248 21.7759 23.7414 27.4152 22.6281 31.4261C22.091 33.357 22.2278 34.7948 23.5216 35.2091C26.2413 36.1165 29.8056 32.7893 32.9304 27.6804C35.3815 23.6322 40.2397 16.1408 42.6956 12.8509C43.0521 12.3578 43.4524 12.4738 43.7649 12.8882C44.302 13.6837 44.3459 15.3867 43.1839 17.5786C41.6215 20.4915 36.0943 29.1928 33.1062 32.7106C29.9423 36.419 25.9727 37.3637 22.8967 36.303C20.7093 35.5447 18.6586 33.6553 19.8646 29.4952Z" fill="white"/>
<path d="M42.6906 35.9631C42.5148 36.3402 42.2902 36.3775 41.9778 36.1165C41.3528 35.5488 40.9085 34.4135 41.5774 32.3708C42.6906 28.9275 46.8848 21.7386 50.8055 16.5178C49.2919 16.4059 48.4863 15.8383 47.9541 15.0054C47.7295 14.6284 47.8662 14.4378 48.4423 14.3632C52.1873 13.9861 55.5319 12.4323 58.52 12.3205C60.7953 12.2459 62.7532 12.8135 63.8274 15.3866C64.7649 17.6573 64.1399 19.9652 62.4456 21.896C60.0385 24.6183 55.2243 27.0049 50.2733 27.9869C51.9676 29.7645 53.5739 31.5793 54.5065 33.1704C55.1315 34.1939 55.3073 35.4784 54.7262 36.2366C54.5065 36.5391 54.2819 36.651 54.0134 36.3112C51.0692 32.9053 48.7548 30.4482 46.6553 28.48C45.4542 30.4772 44.1652 32.8597 42.6906 35.9631ZM51.8308 20.566C50.6248 22.3808 49.5116 23.9719 48.3105 25.8241C58.1636 23.9719 63.2024 18.4487 61.9085 15.7595C60.9271 13.6422 56.4693 15.6104 53.5251 16.2899C53.5251 17.3506 53.0369 18.6724 51.8308 20.566Z" fill="white"/>
<path d="M85.2667 27.9786C81.6536 33.6137 76.0386 38.0431 69.9744 36.1496C66.3173 35.0142 64.8916 32.176 64.8916 29.0725C64.8916 21.0134 73.2262 14.0151 78.2651 12.5027C80.8529 11.7445 83.0793 12.163 84.3293 13.261C89.8613 15.3079 88.6113 22.7578 85.2667 27.9786ZM83.4406 14.1725C81.2581 13.493 75.5943 16.062 71.405 21.5894C67.123 27.2245 67.0351 33.622 70.0672 34.7159C73.0114 35.7766 78.2699 32.7478 82.0149 26.922C86.0724 20.6032 85.8917 14.9267 83.4406 14.1725Z" fill="white"/>
<path d="M145.411 14.1726C143.228 13.4931 137.564 16.062 133.375 21.5894C129.093 27.2246 129.005 33.6221 132.037 34.716C134.982 35.7767 140.24 32.7478 143.985 26.9221C148.042 20.6033 147.862 14.9267 145.411 14.1726Z" fill="#FFCCEF"/>
<path d="M113.044 16.5177C113.269 17.4625 113 18.8257 111.887 20.4913C109.66 23.86 106.047 28.8902 104.753 32.3707C104.172 33.9576 104.485 34.488 105.823 34.0737C117.995 30.1374 123.61 19.3187 120.978 15.7636C119.416 13.6422 116.164 15.6476 113.044 16.5177Z" fill="#FFCCEF"/>
<path d="M156.997 25.4884C157.075 17.1973 152.671 11.2846 143.99 7.51404C137.135 4.53488 129.767 2.9645 122.331 1.59301C118.21 0.830611 114.02 0.60272 109.768 0.942485C102.786 1.49771 97.4978 5.09011 95.5301 10.8247C93.6063 16.4308 94.2411 22.0411 95.3934 27.6596C96.3943 32.5324 98.9723 36.8126 102.527 40.6453C104.661 42.9449 107.6 44.5319 110.617 45.9199C119.616 50.051 129.386 51.1739 139.405 50.7844C148.228 50.4446 153.145 46.6865 155.508 39.1826C156.606 35.6938 156.772 32.1263 156.992 28.3847C156.992 27.5312 156.987 26.5077 156.997 25.4884ZM107.38 36.1538C106.086 36.5308 105.286 36.4189 104.529 35.8886C103.992 35.5115 103.279 35.0184 102.659 34.2602C101.809 33.2782 101.589 32.7064 102.527 30.2493C103.909 26.6942 107.61 20.7897 110.686 16.8949C108.947 16.8203 108.054 15.8714 107.79 15.3038C107.61 14.8894 107.658 14.6615 108.235 14.5828C111.311 14.243 113.537 12.7307 116.437 12.3495C119.289 11.9724 121.52 13.2196 123.17 15.6808C127.262 21.7386 119.328 32.7851 107.38 36.1538ZM147.237 27.9787C143.624 33.6138 138.009 38.0432 131.944 36.1496C128.287 35.0143 126.862 32.176 126.862 29.0726C126.862 21.0135 135.201 14.0152 140.235 12.5028C142.823 11.7445 145.049 12.163 146.299 13.261C151.831 15.3079 150.581 22.7579 147.237 27.9787Z" fill="#FFCCEF"/>
</svg>
