<svg width="211" height="230" viewBox="0 0 211 230" fill="none" xmlns="http://www.w3.org/2000/svg">
<path d="M65.2961 3.26361C67.8436 3.90907 70.4412 4.40452 72.9249 5.23634C78.4528 7.09088 82.486 11.0682 86.4553 15.0909C92.0151 20.7272 95.8432 27.5636 99.6029 34.3954C102.283 39.2591 104.424 44.4182 106.808 49.4409C106.853 49.5409 106.936 49.6227 107.068 49.8C107.879 47.7545 108.617 45.7545 109.451 43.7954C112.568 36.4727 116.506 29.6954 122.48 24.2682C126.787 20.3545 131.663 17.9591 137.629 17.4409C144.118 16.8772 149.942 18.35 155.001 22.1818C159.567 25.6409 162.324 30.4591 163.24 36.1772C164.256 42.5272 161.841 47.8045 158.031 52.6954C154.873 56.7545 150.544 59.2182 146.255 61.7682C142.363 64.0818 138.444 66.3591 134.539 68.65C134.283 68.8 134.037 68.9636 133.568 69.2591C134.069 69.3 134.334 69.3363 134.602 69.3363C157.079 69.3409 179.56 69.3363 202.036 69.3409C204.953 69.3409 206.511 70.2227 207.245 72.4227C207.491 73.1545 207.532 73.9818 207.536 74.7636C207.555 87.7773 207.555 100.791 207.546 113.809C207.546 115.959 207.564 118.109 207.459 120.255C207.345 122.577 205.367 124.359 203.016 124.368C200.441 124.377 197.866 124.368 195.145 124.368C195.145 126.223 195.145 127.986 195.145 129.755C195.15 151.341 195.154 172.927 195.154 194.509C195.154 203.523 195.15 212.536 195.141 221.545C195.136 223.85 193.122 225.873 190.807 225.936C190.579 225.941 190.351 225.936 190.123 225.936C134.575 225.936 79.027 225.923 23.4789 225.973C20.6215 225.977 18.3064 223.832 18.311 220.841C18.3839 189.068 18.3565 157.295 18.3565 125.527C18.3565 125.195 18.3246 124.864 18.3018 124.382C15.6404 124.382 13.0337 124.409 10.4269 124.373C8.41264 124.341 6.76748 123.127 6.21605 121.2C5.98363 120.382 5.96996 119.482 5.96996 118.623C5.96085 104.091 6.01553 89.55 5.92439 75.0045C5.9016 71.4273 7.884 69.2909 11.5799 69.3045C33.564 69.3909 55.5481 69.35 77.5322 69.35C77.8604 69.35 78.1885 69.35 78.5212 69.35C78.5394 69.2909 78.5622 69.2318 78.5804 69.1727C76.8441 68.25 75.0896 67.3591 73.3715 66.4045C65.2687 61.9182 57.6126 56.8136 51.2598 49.9818C47.1537 45.5636 43.9181 40.6182 42.282 34.7363C39.853 26 42.2729 18.3772 47.6504 11.45C50.8132 7.37725 54.86 4.62725 59.9869 3.59997C60.6158 3.4727 61.2492 3.37725 61.8781 3.26361C63.0174 3.26361 64.1567 3.26361 65.2961 3.26361ZM102.009 216.586C102.009 185.805 102.009 155.123 102.009 124.436C77.2178 124.436 52.5176 124.436 27.7672 124.436C27.7672 155.177 27.7672 185.859 27.7672 216.586C52.5267 216.586 77.2269 216.586 102.009 216.586ZM185.73 216.586C185.73 185.809 185.73 155.127 185.73 124.427C160.948 124.427 136.248 124.427 111.488 124.427C111.488 155.164 111.488 185.855 111.488 216.586C136.257 216.586 160.962 216.586 185.73 216.586ZM15.3442 115.041C44.3145 115.041 73.1436 115.041 102 115.041C102 102.9 102 90.8182 102 78.7227C73.0661 78.7227 44.2371 78.7227 15.3442 78.7227C15.3442 90.8454 15.3442 102.905 15.3442 115.041ZM111.502 78.7272C111.502 90.8954 111.502 102.955 111.502 115.041C140.431 115.041 169.269 115.041 198.176 115.041C198.176 102.918 198.176 90.8545 198.176 78.7272C169.269 78.7272 140.427 78.7272 111.502 78.7272ZM101.936 68.7272C101.936 68.0363 102.036 67.45 101.918 66.9136C101.225 63.7227 100.683 60.4863 99.7214 57.3773C97.1785 49.1318 93.2 41.5318 88.7476 34.1682C85.6806 29.0909 82.6546 23.9772 78.193 19.9182C75.5362 17.5 72.9477 15.0136 69.4477 13.7818C67.0324 12.9318 64.6034 12.2772 62.0194 12.6863C58.6516 13.2227 56.3046 15.2818 54.3815 17.9091C50.9909 22.55 49.5964 27.5863 51.4557 33.2272C53.0599 38.0954 56.1406 41.9909 59.759 45.4863C64.5942 50.1591 70.1222 53.9091 75.9554 57.2318C84.1904 61.9227 92.8263 65.7182 101.936 68.7272ZM111.753 69.4727C112.295 69.3409 112.664 69.3 112.992 69.1591C114.655 68.4545 116.383 67.8591 117.955 66.9818C126.322 62.3227 134.657 57.6091 142.983 52.8818C146.05 51.1409 149.022 49.2863 151.159 46.3591C153.228 43.5272 154.732 40.5591 153.907 36.9227C153.333 34.3954 152.034 32.2045 150.22 30.4136C147.832 28.0545 144.806 26.8182 141.475 26.7045C137.834 26.5818 134.279 26.9136 131.125 29.2318C126.427 32.6863 123.127 37.2272 120.484 42.2909C116.055 50.7682 113.475 59.8545 111.753 69.4727Z" fill="#E5B6D2"/>
</svg>
