<svg width="226" height="226" viewBox="0 0 226 226" fill="none" xmlns="http://www.w3.org/2000/svg">
<g clip-path="url(#clip0)">
<path d="M163.16 179.892C162.299 180.5 161.804 180.8 161.361 181.164C148.549 191.763 133.5 196.684 117.204 198.3C111.591 198.855 106.641 194.574 105.878 188.912C105.131 183.375 108.757 178.147 114.259 177.021C117.768 176.304 121.346 175.927 124.85 175.19C137.077 172.618 147.201 166.527 155.164 156.899C157.446 154.141 159.749 151.399 161.994 148.609C165.247 144.567 169.109 141.225 173.458 138.414C177.312 135.924 181.511 134.611 186.103 134.636C191.244 134.66 196.418 134.372 201.518 134.85C213.262 135.948 221.92 145.433 221.985 157.183C222.095 177.43 222.001 197.681 222.046 217.932C222.05 219.499 221.599 220.034 219.979 220.03C201.705 219.981 183.436 219.981 165.162 220.03C163.497 220.034 163.123 219.406 163.131 217.895C163.176 206.15 163.156 194.404 163.156 182.663C163.16 181.877 163.16 181.099 163.16 179.892Z" stroke="#ADEAE7" stroke-width="6" stroke-miterlimit="10"/>
<path d="M103.864 175.964C98.5643 182.533 97.4882 189.439 102.361 197.174C87.596 194.724 74.6704 189.422 63.1498 179.649C63.093 180.86 63.028 181.606 63.028 182.351C63.024 194.027 62.9833 205.704 63.0646 217.381C63.0767 219.333 62.6707 220.058 60.5103 220.046C42.5087 219.957 24.5071 219.973 6.50949 220.03C4.71866 220.034 4.05675 219.621 4.06081 217.689C4.12578 197.575 4.04863 177.462 4.12172 157.349C4.16639 144.615 14.2738 134.688 27.0532 134.627C30.3018 134.611 33.5667 134.85 36.7951 134.583C46.2284 133.797 53.6353 137.864 59.9986 144.178C63.2473 147.402 66.1467 151.006 68.9934 154.603C77.6388 165.534 88.6924 172.529 102.398 175.303C102.731 175.372 103.06 175.441 103.38 175.546C103.494 175.583 103.579 175.713 103.864 175.964Z" stroke="#ADEAE7" stroke-width="6" stroke-miterlimit="10"/>
<path d="M97.082 65.5557C93.1877 65.5557 89.3421 65.6894 85.5168 65.5031C83.3118 65.3978 81.9148 66.1633 80.5545 67.8441C76.5992 72.7205 72.4856 77.4673 68.3761 82.2222C67.905 82.765 67.0928 83.0161 66.439 83.4049C66.1873 82.6961 65.7243 81.9873 65.7122 81.2745C65.6431 76.7545 65.6228 72.2345 65.6919 67.7145C65.7162 66.0904 65.2289 65.4302 63.4909 65.5152C60.7904 65.6489 58.0819 65.5841 55.3774 65.5395C47.5481 65.418 41.5218 59.7154 41.396 51.9066C41.2213 41.1818 41.2213 30.4528 41.3838 19.728C41.5056 11.8018 47.5684 6.12747 55.5357 6.12342C76.5058 6.10722 97.4759 6.10722 118.446 6.12342C126.495 6.13152 132.525 12.0974 132.691 20.1411C132.716 21.4209 132.602 22.713 132.724 23.9847C132.89 25.7465 132.249 26.3338 130.446 26.3095C123.615 26.2204 116.769 26.5242 109.955 26.2083C101.927 25.8437 96.9399 31.8299 97.0536 39.0554C97.1835 47.7471 97.082 56.4428 97.082 65.5557Z" stroke="#ADEAE7" stroke-width="6" stroke-miterlimit="10"/>
<path d="M151.087 94.0366C150.721 93.3157 150.478 92.4935 149.974 91.886C147.18 88.5041 144.289 85.1991 141.507 81.8051C140.565 80.6589 139.522 80.1931 138.027 80.2053C130.117 80.266 122.202 80.2458 114.292 80.2296C108.079 80.2174 103.746 76.1429 103.665 69.9138C103.543 60.6064 103.547 51.2991 103.665 41.9918C103.742 35.8193 108.119 31.6882 114.316 31.6841C132.371 31.6679 150.429 31.6639 168.483 31.6801C174.818 31.6841 179.054 35.8234 179.102 42.1903C179.176 51.3639 179.18 60.5376 179.107 69.7072C179.054 76.1794 174.847 80.2174 168.321 80.2458C163.789 80.266 159.257 80.3065 154.729 80.2215C153.036 80.1891 152.476 80.8047 152.533 82.4572C152.63 85.353 152.581 88.257 152.533 91.1569C152.52 91.8941 152.281 92.6272 152.147 93.3643C151.789 93.5911 151.436 93.8139 151.087 94.0366Z" stroke="#ADEAE7" stroke-width="6" stroke-miterlimit="10"/>
<path d="M167.627 104.004C167.651 90.2051 178.762 79.0752 192.499 79.0833C206.359 79.0914 217.587 90.2902 217.563 104.077C217.538 117.844 206.265 128.921 192.329 128.868C178.68 128.811 167.602 117.661 167.627 104.004Z" stroke="#ADEAE7" stroke-width="6" stroke-miterlimit="10"/>
<path d="M58.5043 103.939C58.5084 117.73 47.4305 128.848 33.6643 128.864C19.8616 128.88 8.62526 117.799 8.58871 104.134C8.55217 90.3104 19.7316 79.0995 33.5709 79.0833C47.3127 79.0671 58.5003 90.2173 58.5043 103.939Z" stroke="#ADEAE7" stroke-width="6" stroke-miterlimit="10"/>
</g>
<defs>
<clipPath id="clip0">
<rect width="226" height="225" fill="white" transform="translate(0 0.242188)"/>
</clipPath>
</defs>
</svg>
