<svg width="233" height="226" viewBox="0 0 233 226" fill="none" xmlns="http://www.w3.org/2000/svg">
<path d="M143.439 177.748C143.835 178.673 144.081 179.322 144.383 179.946C146.746 184.85 149.195 189.72 151.451 194.672C152.279 196.488 153.322 197.15 155.353 197.098C164.983 196.84 172.382 200.914 176.941 209.351C178.489 212.216 179.092 215.684 179.662 218.957C180.214 222.124 178.803 223.414 175.522 223.414C153.534 223.427 131.545 223.427 109.557 223.432C93.2437 223.436 76.9347 223.436 60.6214 223.432C56.818 223.432 55.8391 222.412 56.0375 218.708C56.6714 206.886 66.2791 197.301 78.1982 197.228C82.0146 197.202 83.9379 196.096 85.3049 192.594C87.0427 188.137 89.4058 183.921 91.4843 179.593C91.7258 179.094 91.8983 178.561 92.2131 177.752C86.1889 177.752 80.3975 177.752 74.6018 177.752C56.0634 177.752 37.5249 177.786 18.9865 177.739C12.1343 177.722 7.46842 172.856 7.46842 165.964C7.46411 115.926 7.45548 65.8886 7.45117 15.8509C7.45117 7.50909 11.8238 3.15106 20.1939 3.15106C85.2962 3.14676 150.399 3.13815 215.497 3.13385C223.927 3.13385 228.252 7.43165 228.252 15.8078C228.261 65.6305 228.265 115.453 228.269 165.276C228.269 171.389 225.415 175.773 220.356 177.184C218.86 177.601 217.239 177.713 215.673 177.713C192.391 177.748 169.114 177.743 145.832 177.748C145.133 177.748 144.435 177.748 143.439 177.748ZM221.435 135.88C221.478 134.985 221.542 134.219 221.542 133.453C221.542 109.512 221.534 85.5708 221.534 61.6339C221.534 46.2237 221.534 30.8136 221.56 15.4034C221.564 13.36 221.288 11.3982 219.257 10.4689C218.14 9.95699 216.764 9.85374 215.501 9.84943C190.283 9.82792 165.065 9.85374 139.851 9.85374C99.9062 9.85804 59.9617 9.85374 20.0128 9.85804C15.5712 9.85804 14.1869 11.2261 14.1869 15.61C14.1826 54.8882 14.1826 94.1707 14.1826 133.449C14.1826 134.215 14.1826 134.985 14.1826 135.88C83.3902 135.88 152.318 135.88 221.435 135.88ZM221.417 142.333C220.4 142.333 219.623 142.333 218.843 142.333C212.521 142.333 206.195 142.328 199.873 142.333C157.548 142.346 115.223 142.359 72.8985 142.367C54.1444 142.371 35.3904 142.402 16.632 142.324C14.6095 142.316 14.1007 142.944 14.1309 144.867C14.2344 151.462 14.1654 158.057 14.1697 164.652C14.1697 169.909 15.2391 170.989 20.4268 170.989C56.9301 170.985 93.4335 170.976 129.941 170.972C158.687 170.968 187.428 170.972 216.174 170.968C220.106 170.968 221.521 169.587 221.534 165.685C221.555 158.732 221.538 151.776 221.529 144.824C221.525 144.114 221.469 143.408 221.417 142.333ZM63.239 216.531C99.7466 216.531 136.103 216.531 172.495 216.531C171.261 209.248 164.59 203.788 156.889 203.715C149.851 203.646 142.809 203.711 135.771 203.711C117.022 203.715 98.2762 203.694 79.5264 203.728C71.3849 203.745 64.5844 209.084 63.239 216.531ZM145.094 196.957C144.745 196.135 144.525 195.55 144.249 194.99C141.649 189.802 138.988 184.644 136.47 179.417C135.84 178.109 135.077 177.705 133.667 177.713C122.891 177.773 112.114 177.778 101.342 177.735C100.143 177.73 99.5655 178.126 99.0696 179.18C96.534 184.558 93.9208 189.897 91.3463 195.257C91.1135 195.743 90.9755 196.268 90.7297 196.952C108.876 196.957 126.81 196.957 145.094 196.957Z" fill="#9ECCED"/>
<path d="M135.228 74.1573C135.228 90.2816 135.232 106.406 135.228 122.53C135.228 126.023 134.249 126.996 130.769 126.996C98.66 127.009 66.5509 127.022 34.4417 127.03C29.8147 127.03 28.8789 126.105 28.8789 121.519C28.8875 89.4125 28.8962 57.3102 28.9091 25.2036C28.9091 21.8308 29.9009 20.8026 33.2343 20.8026C65.7747 20.7983 98.3151 20.8069 130.855 20.8155C134.297 20.8155 135.25 21.8136 135.25 25.3542C135.254 41.6205 135.25 57.891 135.25 74.1573C135.241 74.1573 135.232 74.1573 135.228 74.1573ZM128.449 120.16C128.449 89.1888 128.449 58.4718 128.449 27.729C97.4526 27.729 66.6026 27.729 35.688 27.729C35.688 58.6267 35.688 89.3394 35.688 120.16C66.6414 120.16 97.444 120.16 128.449 120.16Z" fill="#9ECCED"/>
<path d="M176.078 81.2902C168.032 81.2859 159.985 81.2945 151.934 81.2859C148.764 81.2816 147.63 80.1587 147.63 77.0268C147.617 61.5435 147.609 46.0603 147.613 30.577C147.613 27.2041 148.562 26.1974 151.96 26.1888C168.269 26.163 184.582 26.1673 200.891 26.2017C203.871 26.206 204.871 27.2644 204.876 30.2973C204.897 45.8537 204.901 61.4059 204.888 76.9623C204.884 80.262 203.849 81.273 200.43 81.2859C192.318 81.3117 184.198 81.2945 176.078 81.2902ZM198.032 32.9603C183.392 32.9603 168.997 32.9603 154.487 32.9603C154.487 46.9336 154.487 60.7863 154.487 74.7725C169.075 74.7725 183.521 74.7725 198.032 74.7725C198.032 60.8036 198.032 46.9938 198.032 32.9603Z" fill="#9ECCED"/>
<path d="M176.393 95.6205C184.004 95.6205 191.615 95.6119 199.226 95.6248C202.366 95.6291 203.53 96.7304 203.547 99.8882C203.586 107.555 203.582 115.217 203.539 122.883C203.521 125.968 202.435 126.987 199.321 126.991C184.026 127.013 168.734 127.022 153.439 127.017C150.433 127.017 149.32 125.886 149.312 122.827C149.29 115.092 149.29 107.352 149.312 99.6171C149.32 96.6745 150.381 95.6162 153.348 95.6119C161.033 95.5904 168.713 95.6033 176.397 95.6033C176.393 95.6076 176.393 95.6162 176.393 95.6205ZM156.009 120.091C169.687 120.091 183.133 120.091 196.617 120.091C196.617 114.098 196.617 108.277 196.617 102.259C194.228 102.259 192.016 102.259 189.8 102.259C179.248 102.254 168.695 102.289 158.143 102.211C156.44 102.198 155.845 102.697 155.953 104.392C156.082 106.389 156.004 108.402 156.009 110.407C156.013 113.612 156.009 116.817 156.009 120.091Z" fill="#9ECCED"/>
<path d="M106.827 156.211C106.927 150.154 112.037 145.228 118.121 145.327C124.051 145.422 129.044 150.567 128.932 156.465C128.82 162.492 123.65 167.483 117.63 167.375C111.73 167.276 106.728 162.101 106.827 156.211ZM122.179 156.302C122.136 153.991 120.204 152.043 117.944 152.025C115.59 152.008 113.52 154.069 113.563 156.396C113.602 158.784 115.655 160.716 118.048 160.625C120.433 160.526 122.226 158.655 122.179 156.302Z" fill="#9ECCED"/>
<path d="M82.2431 44.8944C71.898 44.8901 61.5572 44.8815 51.2121 44.903C49.3794 44.9073 47.9391 44.4125 47.413 42.4723C46.7575 40.0588 48.2495 38.2132 51.0439 38.1788C56.4299 38.11 61.8159 38.1444 67.2063 38.1487C82.2906 38.1573 97.3749 38.1745 112.455 38.1874C112.886 38.1874 113.317 38.1745 113.749 38.196C116.219 38.3208 117.561 39.5813 117.479 41.6936C117.405 43.7414 116.133 44.8643 113.701 44.8729C105.297 44.903 96.8919 44.8944 88.4916 44.8987C86.4088 44.8987 84.326 44.8987 82.2431 44.8944Z" fill="#9ECCED"/>
<path d="M82.4459 61.6123C72.1784 61.6123 61.9109 61.664 51.6477 61.5478C50.3712 61.5349 48.78 60.9326 47.9348 60.0378C47.3225 59.3882 47.2319 57.4909 47.7494 56.7165C48.379 55.7787 49.8883 54.9527 51.0396 54.9226C57.6417 54.7505 64.2481 54.8279 70.8502 54.8279C84.6365 54.8279 98.4185 54.8279 112.205 54.8279C112.778 54.8279 113.356 54.7978 113.925 54.8451C116.047 55.0172 117.513 56.5057 117.47 58.4159C117.427 60.3475 116.159 61.5521 113.887 61.5736C108.358 61.6253 102.83 61.5994 97.3017 61.6037C92.3469 61.608 87.3964 61.6037 82.4416 61.6037C82.4459 61.608 82.4459 61.608 82.4459 61.6123Z" fill="#9ECCED"/>
<path d="M82.2906 111.986C72.0231 111.986 61.7556 111.981 51.4924 111.994C49.733 111.999 48.1676 111.728 47.5079 109.805C46.6583 107.331 48.1288 105.326 50.9965 105.27C55.4467 105.18 59.897 105.218 64.3516 105.214C80.5053 105.21 96.6591 105.214 112.813 105.214C113.171 105.214 113.533 105.193 113.891 105.218C116.021 105.382 117.496 106.836 117.487 108.75C117.474 110.781 116.185 111.943 113.744 111.956C106.28 111.99 98.8109 111.977 91.3464 111.986C88.3191 111.986 85.3049 111.986 82.2906 111.986Z" fill="#9ECCED"/>
<path d="M82.5233 95.2677C72.1825 95.2677 61.8417 95.2591 51.5009 95.2806C49.7414 95.2849 48.1761 95.0526 47.5034 93.1209C46.7185 90.8666 47.9691 88.8102 50.3581 88.6812C52.8635 88.5435 55.3819 88.5865 57.8959 88.5822C76.2791 88.5779 94.6623 88.5822 113.046 88.5951C115.801 88.5951 117.159 89.4857 117.448 91.3872C117.798 93.7017 116.396 95.2204 113.761 95.229C104.783 95.2634 95.8094 95.2548 86.8313 95.2634C85.3953 95.2677 83.9593 95.2677 82.5233 95.2677Z" fill="#9ECCED"/>
<path d="M82.5062 78.5755C72.2387 78.5755 61.9668 78.5927 51.6993 78.5497C50.6644 78.5454 49.2327 78.5024 48.6937 77.8743C47.9261 76.9794 47.4474 75.5038 47.5078 74.3121C47.594 72.6902 48.961 71.946 50.5868 71.9331C54.8214 71.9072 59.0604 71.8943 63.295 71.89C79.5954 71.8857 95.8957 71.89 112.196 71.89C112.701 71.89 113.201 71.89 113.705 71.9072C116.163 72.0062 117.513 73.2452 117.474 75.3618C117.436 77.4527 116.254 78.5196 113.74 78.5325C105.555 78.5712 97.3662 78.5626 89.1816 78.5712C86.9564 78.5755 84.7313 78.5755 82.5062 78.5755Z" fill="#9ECCED"/>
<path d="M170.722 59.1816C176.268 53.9675 181.585 48.9641 186.902 43.9651C187.476 43.4273 188.015 42.8422 188.636 42.3604C189.86 41.4096 191.171 40.9579 192.521 42.1453C193.957 43.4101 194.198 45.2858 193.125 46.7787C192.836 47.1831 192.465 47.5315 192.103 47.8757C185.716 53.946 179.33 60.0162 172.926 66.0693C170.058 68.7796 168.307 68.5731 166.19 65.3207C164.004 61.9608 161.813 58.6052 159.653 55.228C157.984 52.6209 158.109 50.8054 159.972 49.6052C161.887 48.3704 163.611 48.934 165.323 51.3862C167.074 53.8987 168.821 56.4326 170.722 59.1816Z" fill="#9ECCED"/>
</svg>
