<svg id="icon--del" width="15" height="17" viewBox="0 0 15 17" fill="none" xmlns="http://www.w3.org/2000/svg">
<path d="M6.375 15.9375C6.37508 15.7979 6.34765 15.6598 6.29428 15.5308C6.24092 15.4019 6.16266 15.2847 6.06398 15.186C5.9653 15.0873 5.84814 15.0091 5.71919 14.9557C5.59025 14.9024 5.45205 14.8749 5.3125 14.875L2.125 14.875L2.125 2.125L5.3125 2.125C5.59429 2.125 5.86454 2.01306 6.0638 1.8138C6.26306 1.61454 6.375 1.34429 6.375 1.0625C6.375 0.780708 6.26306 0.510457 6.0638 0.311199C5.86454 0.111942 5.59429 1.708e-07 5.3125 1.708e-07L1.0625 1.708e-07C0.922948 -7.89758e-05 0.784749 0.0273494 0.655805 0.080717C0.526862 0.134085 0.409701 0.212345 0.311023 0.311023C0.212345 0.409701 0.134085 0.526861 0.080717 0.655805C0.0273494 0.78475 -7.8775e-05 0.922948 3.7998e-07 1.0625L3.7998e-07 15.9375C-7.8775e-05 16.0771 0.0273494 16.2153 0.080717 16.3442C0.134085 16.4731 0.212345 16.5903 0.311023 16.689C0.409701 16.7877 0.526862 16.8659 0.655805 16.9193C0.784749 16.9727 0.922948 17.0001 1.0625 17H5.3125C5.45205 17.0001 5.59025 16.9727 5.71919 16.9193C5.84814 16.8659 5.9653 16.7877 6.06398 16.689C6.16266 16.5903 6.24092 16.4731 6.29428 16.3442C6.34765 16.2153 6.37508 16.0771 6.375 15.9375Z" fill="black" fill-opacity="0.85"/>
<path d="M9.87378 6.06372L11.2476 7.4375L5.3125 7.4375C5.03071 7.4375 4.76046 7.54944 4.5612 7.7487C4.36194 7.94796 4.25 8.21821 4.25 8.5C4.25 8.78179 4.36194 9.05204 4.5612 9.2513C4.76046 9.45056 5.03071 9.5625 5.3125 9.5625L11.2476 9.5625L9.87378 10.9363C9.67546 11.1357 9.56431 11.4056 9.5647 11.6869C9.56509 11.9681 9.67699 12.2378 9.87587 12.4366C10.0747 12.6355 10.3444 12.7474 10.6256 12.7478C10.9069 12.7482 11.1768 12.637 11.3762 12.4387L14.5637 9.25122C14.6624 9.15259 14.7407 9.03548 14.7941 8.90658C14.8475 8.77768 14.875 8.63953 14.875 8.5C14.875 8.36048 14.8475 8.22232 14.7941 8.09342C14.7407 7.96452 14.6624 7.84741 14.5637 7.74878L11.3762 4.56128C11.1768 4.36296 10.9069 4.25181 10.6256 4.2522C10.3444 4.25259 10.0747 4.36449 9.87587 4.56337C9.67699 4.76224 9.56509 5.03186 9.5647 5.31311C9.56431 5.59436 9.67546 5.8643 9.87378 6.06372Z" fill="black" fill-opacity="0.85"/>
</svg>
