<?xml version="1.0" encoding="UTF-8"?><!DOCTYPE svg PUBLIC "-//W3C//DTD SVG 1.1//EN" "http://www.w3.org/Graphics/SVG/1.1/DTD/svg11.dtd"><svg xmlns="http://www.w3.org/2000/svg" xmlns:xlink="http://www.w3.org/1999/xlink"><symbol id="icon--check" viewBox="0 0 14 12"><path d="M3.818 11.518L0 7.888l1.272-1.21 2.546 2.42 8.91-8.47L14 1.838l-10.182 9.68z"/></symbol><symbol id="icon--minus" viewBox="0 0 9 2"><path d="M0 0h9v2H0z"/></symbol><symbol id="icon--pdf" viewBox="0 0 24 24"><path d="M20.737 5.452l-3.188-3.19C16.853 1.569 15.482 1 14.5 1H3.786C2.804 1 2 1.804 2 2.786V22.07a1.79 1.79 0 001.786 1.786h16.428A1.79 1.79 0 0022 22.071V8.5c0-.982-.567-2.353-1.263-3.048z" fill="#000" fill-opacity=".85"/><path d="M20.571 22.071a.364.364 0 01-.357.358H3.786a.363.363 0 01-.357-.358V2.786c0-.194.163-.357.357-.357H14.5c.107 0 .228.013.357.038v5.678h5.674c.027.13.04.25.04.357v13.572-.003z" fill="#fff"/><path d="M19.076 15.143c-.094.058-.362.094-.531.094-.554 0-1.233-.255-2.192-.666.37-.026.705-.04 1.009-.04.553 0 .714 0 1.259.139.54.134.544.415.455.473zm-9.603.085c.214-.375.433-.773.656-1.197a22.378 22.378 0 001.148-2.509 8.35 8.35 0 001.897 2.357c.094.08.192.157.3.237-1.523.304-2.84.67-4 1.112zm1.777-9.773c.303 0 .478.762.491 1.48.013.715-.152 1.215-.362 1.59-.174-.554-.254-1.42-.254-1.987 0 0-.013-1.083.125-1.083zM5.295 19.17c.174-.47.852-1.398 1.857-2.224.062-.049.218-.196.361-.33-1.049 1.679-1.754 2.344-2.218 2.554zm14.071-5.014c-.303-.299-.982-.455-2.009-.469a16.87 16.87 0 00-2.415.175c-.393-.228-.8-.474-1.12-.773-.858-.803-1.572-1.915-2.018-3.138.026-.116.053-.214.075-.317 0 0 .483-2.746.353-3.674a.995.995 0 00-.062-.264l-.04-.111c-.13-.302-.389-.623-.795-.606l-.237-.008h-.004c-.451 0-.822.231-.915.574-.295 1.084.008 2.7.558 4.794l-.143.344c-.393.955-.884 1.92-1.317 2.768l-.058.111c-.456.893-.87 1.652-1.246 2.295l-.388.206c-.027.017-.692.366-.848.46-1.322.79-2.2 1.687-2.346 2.401-.046.223-.012.514.224.652l.375.187c.162.08.336.12.51.12.942 0 2.036-1.169 3.54-3.798a35.225 35.225 0 015.46-1.3c1.321.746 2.946 1.264 3.973 1.264.183 0 .34-.018.469-.053a.771.771 0 00.464-.317c.197-.3.241-.71.183-1.134-.013-.125-.116-.282-.223-.389z" fill="#000" fill-opacity=".85"/><path d="M19.728 6.46c.071.071.138.156.205.254h-3.647V3.066c.098.068.183.137.254.207l3.188 3.187z" fill="#fff"/></symbol><symbol id="icon--play" viewBox="0 0 14 16"><path d="M0 0v16l14-8L0 0z"/></symbol><symbol id="icon--plus-2" viewBox="0 0 9 10"><path stroke="#000" stroke-opacity=".85" stroke-width="2" d="M0 5.417h9M4.5 9.917v-9"/></symbol><symbol id="icon--plus" viewBox="0 0 14 14"><path stroke="#fff" stroke-width="2" d="M0 7h14M7 14V0"/></symbol><symbol id="icon--qr" viewBox="0 0 24 24"><path d="M0 24h10.909V13.09H0V24zm2.182-8.728h6.545v6.529H2.182v-6.529z" fill="#000" fill-opacity=".85"/><path d="M6.545 17.454H4.363v2.183h2.182v-2.183zM19.636 21.818h-2.182V24h2.182v-2.182zM24 21.818h-2.183V24H24v-2.182z" fill="#000" fill-opacity=".85"/><path d="M21.818 15.272h-2.181V13.09H13.09V24h2.182v-6.546h2.181v2.182H24V13.09h-2.182v2.182zM0 10.91h10.909V0H0v10.91zm2.182-8.728h6.545v6.545H2.182V2.182z" fill="#000" fill-opacity=".85"/><path d="M6.545 4.364H4.363v2.182h2.182V4.364zM13.09 0v10.91H24V0H13.09zm8.728 8.727h-6.545V2.182h6.545v6.545z" fill="#000" fill-opacity=".85"/><path d="M19.636 4.364h-2.182v2.182h2.182V4.364z" fill="#000" fill-opacity=".85"/></symbol><symbol id="icon--stop" viewBox="0 0 12 16"><path d="M4.5 15.492V.504C4.5.225 4.247 0 3.928 0H.572C.253 0 0 .225 0 .504v14.988c0 .279.253.508.572.508h3.356c.319 0 .572-.225.572-.508zM11.428 0H8.072C7.758 0 7.5.225 7.5.504v14.988c0 .279.253.508.572.508h3.356c.314 0 .572-.225.572-.508V.504C12 .225 11.747 0 11.428 0z"/></symbol></svg>