<svg viewBox="0 0 113 50" fill="none" xmlns="http://www.w3.org/2000/svg">
<path d="M1.83892 24.1189H7.8449V21.9703H1.83892V14.8826H8.24563V12.7339H0V34.1666H8.29971V32.0179H1.83892V24.1189Z" fill="#EA4E56"/>
<path d="M23.0652 28.3057C23.0652 31.1526 22.0695 32.576 20.0806 32.576C18.0893 32.576 17.0961 31.1009 17.0961 28.1533V12.7339H15.353V28.9768C15.353 30.8182 15.7562 32.2367 16.5626 33.2324C17.369 34.2281 18.5564 34.7247 20.1224 34.7247C21.5581 34.7247 22.6964 34.2453 23.5397 33.2865C24.3878 32.3203 24.8107 30.9092 24.8107 29.058V12.7339H23.0676V28.3057H23.0652Z" fill="#EA4E56"/>
<path d="M41.55 32.1286C41.341 30.1102 41.2206 28.5663 41.1935 27.4969C41.1567 26.2971 40.9329 25.3949 40.5224 24.7901C40.1192 24.1755 39.3497 23.7772 38.2164 23.5904C40.3798 23.1429 41.1911 21.4319 41.1911 18.4547C41.1911 16.66 41.0755 15.2587 40.3036 14.2557C39.539 13.2428 38.1106 12.7339 36.0185 12.7339H31.6572V34.1666H33.4961V24.7901H36.6454C37.5255 24.7901 38.2213 25.1392 38.7351 25.8374C39.2464 26.5258 39.5046 27.6272 39.5046 29.144C39.5046 29.9627 39.5415 30.7617 39.6128 31.5435C39.684 32.3252 39.8217 33.2004 40.0233 34.1666H42.2089V33.6651C41.9016 33.6085 41.6803 33.0972 41.55 32.1286ZM36.3897 22.6414H33.5011V14.8826H36.0873C38.4106 14.8826 39.3005 16.156 39.3005 18.7055C39.2981 21.3286 38.5089 22.6414 36.3897 22.6414Z" fill="#EA4E56"/>
<path d="M52.7408 12.0652H52.6622C49.9382 12.0652 47.7231 14.2802 47.7231 17.0042V29.7439C47.7231 32.4678 49.9382 34.6829 52.6622 34.6829H52.7408C55.4648 34.6829 57.6799 32.4678 57.6799 29.7439V17.0042C57.6823 14.2802 55.4648 12.0652 52.7408 12.0652ZM55.8041 29.7463C55.8041 31.4304 54.4249 32.8095 52.7408 32.8095H52.6622C50.9781 32.8095 49.5989 31.4304 49.5989 29.7463V17.0042C49.5989 15.3202 50.9781 13.941 52.6622 13.941H52.7408C54.4249 13.941 55.8041 15.3202 55.8041 17.0042V29.7463Z" fill="#EA4E56"/>
<path d="M94.7165 14.5925C93.3078 14.5925 92.2261 15.6742 92.2261 17.0042V29.7439C92.2261 31.0739 93.3078 32.1556 94.6378 32.1556C96.0465 32.1556 97.1282 31.0739 97.1282 29.7439V17.0042C97.1282 15.6766 96.0465 14.5925 94.7165 14.5925Z" fill="#3E92C6"/>
<path d="M113 24.6746C113.064 16.6207 109.435 10.8827 102.281 7.2196C96.6317 4.32846 90.5593 2.80423 84.4304 1.46929C81.0328 0.731759 77.5812 0.50804 74.0754 0.837472C68.3202 1.37587 63.9639 4.86686 62.3413 10.4352C60.7556 15.8782 61.2792 21.3286 62.2282 26.7839C63.0518 31.5164 65.1783 35.6736 68.1063 39.3957C69.8641 41.6305 72.2857 43.1719 74.7761 44.5191C82.1908 48.5338 90.2446 49.6204 98.5001 49.2443C105.77 48.9124 109.821 45.264 111.773 37.9772C112.68 34.5919 112.816 31.1231 112.998 27.4919C112.998 26.661 112.99 25.6678 113 24.6746ZM83.5257 29.7463C83.5257 32.7825 81.055 35.2533 78.0188 35.2533H72.7774V12.1439H78.6998C81.3598 12.1439 83.5232 14.3073 83.5232 16.9673V29.7463H83.5257ZM100.31 29.7463C100.31 32.8292 97.8019 35.3368 94.719 35.3368C91.5574 35.3368 89.0498 32.8292 89.0498 29.7463V17.0042C89.0498 13.9213 91.5574 11.4112 94.6403 11.4112H94.719C97.8019 11.4112 100.31 13.9213 100.31 17.0042V29.7463Z" fill="#3E92C6"/>
<path d="M78.7022 15.2391H75.875V32.1581H78.0212C79.3488 32.1581 80.4305 31.0764 80.4305 29.7488V16.9649C80.4305 16.0135 79.6561 15.2391 78.7022 15.2391Z" fill="#3E92C6"/>
</svg>
