<?xml version="1.0" standalone="no"?>
<!DOCTYPE svg PUBLIC "-//W3C//DTD SVG 20010904//EN"
 "http://www.w3.org/TR/2001/REC-SVG-20010904/DTD/svg10.dtd">
<svg version="1.0" xmlns="http://www.w3.org/2000/svg"
 width="120.000000pt" height="120.000000pt" viewBox="0 0 120.000000 120.000000"
 preserveAspectRatio="xMidYMid meet">
<metadata>
Created by potrace 1.14, written by Peter Selinger 2001-2017
</metadata>
<g transform="translate(0.000000,120.000000) scale(0.100000,-0.100000)"
fill="#000000" stroke="none">
<path d="M240 1122 c-74 -22 -149 -95 -181 -177 -18 -48 -23 -82 -25 -175 -4
-261 83 -463 245 -567 138 -89 305 -132 501 -131 212 1 300 63 352 247 24 84
34 303 19 386 -29 157 -129 260 -326 336 -217 83 -462 117 -585 81z m588 -240
c47 -31 54 -62 53 -244 -1 -186 -8 -216 -61 -243 -69 -36 -159 1 -177 72 -5
21 -8 106 -8 189 1 131 4 155 21 185 35 61 113 79 172 41z m-356 -17 c15 -11
31 -29 34 -40 12 -33 11 -332 0 -367 -18 -53 -66 -78 -152 -78 l-74 0 0 256 0
255 83 -3 c62 -3 89 -8 109 -23z"/>
<path d="M728 820 c-21 -16 -22 -25 -23 -175 0 -115 3 -162 13 -176 16 -23 64
-25 82 -4 17 21 18 328 1 348 -19 24 -49 27 -73 7z"/>
<path d="M350 635 l0 -185 33 0 c60 0 62 4 65 174 4 182 0 196 -58 196 l-40 0
0 -185z"/>
</g>
</svg>
