<svg width="281" height="55" viewBox="0 0 281 55" fill="none" xmlns="http://www.w3.org/2000/svg">
<g clip-path="url(#clip0)">
<path d="M9.35661 51.3228H26.2751V54.0969H0.60498V24.9072H25.5895V27.6813H9.35661V37.7705H23.452V40.5445H9.35661V51.3228Z" fill="black"/>
<path d="M59.507 24.9073V27.6814L40.3906 51.3229H58.9828V54.097H30.792V51.3229L49.8681 27.6637H31.5381V24.8896H59.507V24.9073Z" fill="black"/>
<path d="M71.6462 54.0969H65.395V24.9072H72.9569L83.846 43.5483L95.1385 24.9072H102.66V54.0969H96.4089V31.4272L86.528 47.7536H81.2649L71.6462 31.4272V54.0969Z" fill="black"/>
<path d="M119.034 45.5449H132.646L125.81 28.8298L119.034 45.5449ZM136.175 54.0969L133.815 48.319H117.946L115.586 54.0969H108.71L121.253 24.9072H130.508L143.132 54.0969H136.175Z" fill="black"/>
<path d="M174.347 24.9073V27.6814H163.156V54.097H156.118V27.6637H144.967V24.8896H174.347V24.9073Z" fill="black"/>
<path d="M236.879 24.9072H243.332V54.0969H236.879V40.8626H222.017V54.0969H215.564V24.9072H222.017V38.0885H236.879V24.9072Z" fill="black"/>
<path d="M258.314 45.5449H270.776L264.525 28.8298L258.314 45.5449ZM274.003 54.0969L271.845 48.319H257.326L255.168 54.0969H248.877L260.371 24.9072H268.84L280.375 54.0969H274.003Z" fill="black"/>
<path fill-rule="evenodd" clip-rule="evenodd" d="M179.792 28.1408C179.792 26.3562 181.284 24.8896 183.099 24.8896H206.833V27.54H200.945H188.422C187.212 27.54 186.204 28.7239 186.204 30.1904V48.7608C186.204 50.2274 187.192 51.4112 188.422 51.4112H206.833V54.0616H183.099C181.264 54.0616 179.792 52.6127 179.792 50.8105V28.1408Z" fill="black"/>
<path d="M206.833 31.5332H192.112V34.1836H206.833V31.5332Z" fill="#2F9201"/>
<path d="M206.833 38.1768H192.112V40.8272H206.833V38.1768Z" fill="#2F9201"/>
<path d="M206.833 44.8027H192.112V47.4531H206.833V44.8027Z" fill="#2F9201"/>
<path d="M191.044 19.624C179.227 19.4296 177.876 14.2525 177.956 8.79272C189.007 11.8672 192.011 12.9627 191.044 19.624Z" fill="#2F9201"/>
<path d="M194.956 14.2879C193.483 4.9939 199.372 7.64429 202.316 1.01831C209.676 15.6131 195.097 14.6767 194.956 14.2879Z" fill="#2F9201"/>
</g>
<defs>
<clipPath id="clip0">
<rect width="281" height="54.068" fill="white" transform="translate(0 0.488281)"/>
</clipPath>
</defs>
</svg>
