<svg width="186" height="79" viewBox="0 0 186 79" fill="none" xmlns="http://www.w3.org/2000/svg">
<g clip-path="url(#clip0)">
<path fill-rule="evenodd" clip-rule="evenodd" d="M3.16312 38.0371H12.9179V34.5485H3.16312V23.0699H13.5984V19.5813H0.100586V54.3548H13.7119V50.8662H3.16312V38.0371Z" fill="#271E63"/>
<path fill-rule="evenodd" clip-rule="evenodd" d="M37.8717 44.9018C37.8717 49.5158 36.2837 51.879 32.9943 51.879C29.7049 51.879 28.1169 49.5158 28.1169 44.6767V19.5813H25.2812V45.9146C25.2812 48.9531 25.9618 51.2038 27.2095 52.7793C28.5706 54.3548 30.4989 55.2551 32.9943 55.2551C35.3763 55.2551 37.1911 54.4673 38.5523 52.8918C39.9134 51.3163 40.5939 49.0656 40.5939 46.0272V19.5813H37.7583V44.9018H37.8717Z" fill="#271E63"/>
<path fill-rule="evenodd" clip-rule="evenodd" d="M59.6496 35.6739H54.8856V23.0699H59.0824C62.939 23.0699 64.3001 25.0955 64.3001 29.2594C64.4135 33.5357 63.1658 35.6739 59.6496 35.6739ZM68.1566 51.0913C67.8163 47.8277 67.5895 45.352 67.5895 43.5514C67.4761 41.6383 67.1358 40.1753 66.4552 39.1625C65.7747 38.1497 64.527 37.4745 62.7121 37.2494C66.2284 36.5742 67.5895 33.7608 67.5895 28.9218C67.5895 25.9958 67.3626 23.7451 66.1149 22.0571C64.8672 20.369 62.4853 19.5813 59.0824 19.5813H51.9365V54.3548H54.9991V39.1625H60.1033C61.5778 39.1625 62.7121 39.7252 63.5061 40.8505C64.3001 41.9759 64.7538 43.7765 64.7538 46.2522C64.7538 47.6027 64.8672 48.8406 64.9807 50.191C65.0941 51.4289 65.3209 52.8918 65.6612 54.4673H69.2909V53.6796C68.7238 53.4545 68.3835 52.6668 68.1566 51.0913Z" fill="#271E63"/>
<path fill-rule="evenodd" clip-rule="evenodd" d="M91.523 47.1526C91.523 49.8535 89.2544 52.1042 86.5321 52.1042H86.3053C83.583 52.1042 81.3145 49.8535 81.3145 47.1526V26.5586C81.3145 23.8578 83.583 21.6071 86.3053 21.6071H86.4187C89.141 21.6071 91.4095 23.8578 91.4095 26.5586V47.1526H91.523ZM86.4187 18.4561H86.3053C81.8816 18.4561 78.252 22.0572 78.252 26.4461V47.1526C78.252 51.5415 81.8816 55.1427 86.3053 55.1427H86.4187C90.8424 55.1427 94.4721 51.5415 94.4721 47.1526V26.5586C94.5855 22.0572 90.9558 18.4561 86.4187 18.4561Z" fill="#271E63"/>
<path fill-rule="evenodd" clip-rule="evenodd" d="M155.156 22.6199C152.887 22.6199 151.072 24.4204 151.072 26.5586V47.2652C151.072 49.4033 152.887 51.2039 155.042 51.2039C157.311 51.2039 159.126 49.4033 159.126 47.2652V26.5586C159.126 24.3079 157.311 22.6199 155.156 22.6199Z" fill="#E40523"/>
<path fill-rule="evenodd" clip-rule="evenodd" d="M164.344 47.1525C164.344 52.1041 160.26 56.2679 155.156 56.2679C149.938 56.2679 145.855 52.2166 145.855 47.1525V26.5585C145.855 21.6069 149.938 17.4431 155.043 17.4431H155.156C160.147 17.4431 164.344 21.4944 164.344 26.5585V47.1525ZM136.894 47.1525C136.894 52.1041 132.811 56.0428 127.933 56.0428H119.313V18.5685H129.068C133.378 18.5685 137.008 22.0571 137.008 26.446V47.1525H136.894ZM185.101 38.9374C185.214 25.8833 179.316 16.5428 167.52 10.5785C158.219 5.85196 148.35 3.37618 138.255 1.238C132.697 0.000109848 127.026 -0.337497 121.355 0.225181C111.94 1.12547 104.794 6.75225 102.185 15.8676C99.5766 24.7579 100.484 33.5357 101.959 42.426C103.32 50.0785 106.836 56.8306 111.6 62.9075C114.436 66.5087 118.406 68.9844 122.489 71.2352C134.626 77.7622 147.783 79.5628 161.281 78.8876C173.191 78.3249 179.77 72.473 183.059 60.5443C184.534 55.03 184.761 49.4032 185.101 43.5514C185.101 42.201 185.101 40.6255 185.101 38.9374Z" fill="#E40523"/>
<path fill-rule="evenodd" clip-rule="evenodd" d="M128.954 23.6326H124.304V51.0913H127.82C129.975 51.0913 131.79 49.2907 131.79 47.1525V26.446C131.79 24.8705 130.542 23.6326 128.954 23.6326Z" fill="#E40523"/>
</g>
<defs>
<clipPath id="clip0">
<rect width="185" height="79" fill="white" transform="translate(0.100586)"/>
</clipPath>
</defs>
</svg>
