<svg width="112" height="48" viewBox="0 0 112 48" fill="none" xmlns="http://www.w3.org/2000/svg">
<g clip-path="url(#clip0)">
<path fill-rule="evenodd" clip-rule="evenodd" d="M1.85408 23.1111H7.75966V20.9915H1.85408V14.0171H8.17167V11.8975H0V33.0257H8.24034V30.906H1.85408V23.1111Z" fill="#271E63"/>
<path fill-rule="evenodd" clip-rule="evenodd" d="M22.8674 27.2821C22.8674 30.0855 21.9061 31.5214 19.9146 31.5214C17.9232 31.5214 16.9619 30.0855 16.9619 27.1453V11.8975H15.2451V27.8975C15.2451 29.7436 15.6571 31.1111 16.4125 32.0684C17.2365 33.0257 18.4039 33.5727 19.9146 33.5727C21.3567 33.5727 22.4554 33.094 23.2795 32.1368C24.1035 31.1795 24.5155 29.812 24.5155 27.9658V11.8975H22.7988V27.2821H22.8674Z" fill="#271E63"/>
<path fill-rule="evenodd" clip-rule="evenodd" d="M36.0514 21.6752H33.1672V14.0171H35.708C38.0428 14.0171 38.8668 15.2479 38.8668 17.7778C38.9355 20.3761 38.1801 21.6752 36.0514 21.6752ZM41.2016 31.0428C40.9956 29.0599 40.8582 27.5556 40.8582 26.4616C40.7896 25.2992 40.5836 24.4103 40.1715 23.7949C39.7595 23.1795 39.0042 22.7693 37.9054 22.6325C40.0342 22.2222 40.8582 20.5128 40.8582 17.5727C40.8582 15.7949 40.7209 14.4274 39.9655 13.4017C39.2102 12.3761 37.7681 11.8975 35.708 11.8975H31.3818V33.0257H33.2359V23.7949H36.326C37.2187 23.7949 37.9054 24.1368 38.3861 24.8205C38.8668 25.5043 39.1415 26.5983 39.1415 28.1026C39.1415 28.9231 39.2102 29.6752 39.2788 30.4958C39.3475 31.2479 39.4848 32.1368 39.6908 33.094H41.8883V32.6154C41.5449 32.4787 41.3389 32 41.2016 31.0428Z" fill="#271E63"/>
<path fill-rule="evenodd" clip-rule="evenodd" d="M55.3478 28.6498C55.3478 30.2908 53.9744 31.6583 52.3264 31.6583H52.189C50.5409 31.6583 49.1676 30.2908 49.1676 28.6498V16.1369C49.1676 14.4959 50.5409 13.1284 52.189 13.1284H52.2577C53.9058 13.1284 55.2791 14.4959 55.2791 16.1369V28.6498H55.3478ZM52.2577 11.2139H52.189C49.5109 11.2139 47.3135 13.4019 47.3135 16.0686V28.6498C47.3135 31.3164 49.5109 33.5045 52.189 33.5045H52.2577C54.9358 33.5045 57.1332 31.3164 57.1332 28.6498V16.1369C57.2019 13.4019 55.0045 11.2139 52.2577 11.2139Z" fill="#271E63"/>
<path fill-rule="evenodd" clip-rule="evenodd" d="M93.8715 13.7437C92.4981 13.7437 91.3994 14.8377 91.3994 16.1368V28.718C91.3994 30.0172 92.4981 31.1112 93.8028 31.1112C95.1762 31.1112 96.2749 30.0172 96.2749 28.718V16.1368C96.2749 14.7693 95.1762 13.7437 93.8715 13.7437Z" fill="#E40523"/>
<path fill-rule="evenodd" clip-rule="evenodd" d="M99.4337 28.6496C99.4337 31.6582 96.9616 34.1881 93.8715 34.1881C90.7127 34.1881 88.2406 31.7266 88.2406 28.6496V16.1368C88.2406 13.1283 90.7127 10.5984 93.8028 10.5984H93.8715C96.8929 10.5984 99.4337 13.0599 99.4337 16.1368V28.6496ZM82.8157 28.6496C82.8157 31.6582 80.3436 34.0513 77.3908 34.0513H72.1719V11.2821H78.0775C80.6869 11.2821 82.8843 13.4018 82.8843 16.0684V28.6496H82.8157ZM112 23.6582C112.069 15.7266 108.498 10.0513 101.356 6.42742C95.7256 3.55562 89.7513 2.05135 83.6397 0.752204C80.2749 6.67423e-05 76.8414 -0.205061 73.408 0.136819C67.7084 0.683827 63.3822 4.10263 61.8028 9.64109C60.2234 15.0428 60.7728 20.3761 61.6655 25.7778C62.4895 30.4274 64.6183 34.53 67.5024 38.2223C69.2191 40.4103 71.6225 41.9146 74.0947 43.2821C81.4423 47.2479 89.408 48.3419 97.5796 47.9317C104.79 47.5898 108.773 44.0343 110.764 36.7864C111.657 33.436 111.794 30.0172 112 26.4616C112 25.6411 112 24.6838 112 23.6582Z" fill="#E40523"/>
<path fill-rule="evenodd" clip-rule="evenodd" d="M78.0088 14.3591H75.1934V31.0429H77.3221C78.6268 31.0429 79.7255 29.9489 79.7255 28.6497V16.0685C79.7255 15.1113 78.9702 14.3591 78.0088 14.3591Z" fill="#E40523"/>
</g>
<defs>
<clipPath id="clip0">
<rect width="112" height="48" fill="white"/>
</clipPath>
</defs>
</svg>
